<svg width="510" height="145" viewBox="0 0 510 145" fill="none" xmlns="http://www.w3.org/2000/svg">
<path d="M56.2458 25.2904C56.2458 25.695 56.2458 26.0997 56.0435 26.302C55.4365 27.9206 54.4249 30.7531 54.4249 33.181C54.4249 33.788 54.6272 34.1926 54.6272 34.7996C56.2458 33.788 58.0667 30.7531 59.0783 29.1345C60.4946 27.3136 61.9109 25.695 62.7202 24.6834C63.5295 23.6718 64.9457 22.2555 65.755 21.2439C69.8015 15.9835 75.6688 10.9254 81.9409 7.68828C84.7734 6.27202 87.8082 5.46272 90.4384 5.46272C94.4849 5.46272 97.7221 7.28363 99.1383 11.5324C99.3406 12.544 99.543 13.5556 99.543 14.5673C99.543 16.9951 98.936 19.6253 98.7337 21.6486C98.7337 22.2555 97.9244 23.0648 97.9244 23.6718C97.9244 23.8741 96.9128 24.6834 96.9128 24.8857C96.9128 25.2904 96.9128 25.695 96.9128 26.0997C96.9128 26.7066 96.7104 27.7183 96.3058 28.3252C95.9011 29.7415 95.0919 30.9554 94.4849 31.967C94.0802 32.3717 93.271 32.3717 92.8663 32.7763C92.664 32.7763 92.664 32.9787 92.664 33.181C92.664 33.3833 92.664 33.5856 92.664 33.788C92.664 33.9903 92.664 34.3949 92.2593 34.7996C90.6407 37.2274 89.4268 37.6321 89.2245 38.0367C89.0222 38.4414 89.0222 38.846 88.6175 39.2507C86.392 42.0832 85.785 40.8693 84.9757 41.6786C84.5711 42.0832 84.5711 42.8925 84.1664 43.0948C82.9525 44.3088 82.5478 44.1064 81.7385 44.9157C80.9292 45.5227 80.5246 46.7366 79.513 47.1413C79.1083 47.3436 78.299 47.1413 77.6921 47.5459C77.2874 47.7482 77.2874 48.9622 76.8828 49.1645C76.4781 49.5692 75.6688 49.9738 75.2642 50.1761C70.8131 51.997 67.5759 54.0203 62.1132 55.2342C59.2807 56.0435 55.8412 56.2458 52.1994 56.2458C50.3785 56.2458 48.3552 56.2458 46.939 56.0435C46.5343 57.0551 46.5343 58.876 45.3204 61.1016C44.9157 61.9109 44.3088 63.1248 44.1064 63.9341L43.2971 67.5759C43.0948 67.9806 42.6902 67.9806 42.4879 68.3852C41.4762 69.5991 42.2855 71.0154 41.6786 72.4317C41.6786 72.8363 40.4646 73.241 40.4646 73.4433C40.4646 74.0502 40.6669 73.8479 40.6669 74.4549C40.6669 76.8828 39.6553 81.7385 38.0367 83.9641C37.4298 84.7734 37.0251 84.7734 35.6089 84.7734C33.9903 84.7734 32.7763 83.5594 32.574 82.5478V82.1432C32.574 80.3223 34.5972 72.2293 36.2158 67.7782C36.4182 67.3736 36.6205 66.1596 36.6205 65.755C36.8228 64.7434 37.8344 63.3271 37.8344 62.7202C37.8344 62.3155 38.0367 61.7085 38.0367 61.3039C38.0367 59.2807 40.06 57.2574 40.2623 55.2342C38.846 54.6272 37.8344 53.8179 37.0251 52.1994C36.8228 51.7947 36.8228 51.1877 36.8228 50.5808C36.8228 49.7715 37.0251 48.9622 37.2275 48.5575C37.2275 48.3552 37.6321 48.3552 38.0367 48.3552H39.0484C39.8577 48.3552 41.6786 49.3668 42.6902 49.5692L43.9041 46.332C44.7134 44.9157 44.9157 43.2971 45.5227 41.8809C46.1297 39.453 46.939 36.4182 47.5459 33.9903C47.7483 32.9787 48.1529 32.3717 48.3552 31.3601C48.3552 30.7531 48.3552 29.9438 48.3552 29.3368C48.9622 26.7066 49.3668 23.8741 49.7715 21.2439C49.7715 21.0416 49.7715 20.8393 49.7715 20.637C49.9738 19.423 49.9738 18.4114 49.9738 17.3998C49.9738 15.3766 49.5692 13.5556 48.3552 11.3301C48.3552 11.1278 47.1413 9.30686 46.5343 8.29525C45.9273 7.68828 45.9273 6.67666 45.3204 6.27202C43.0948 4.45111 41.0716 3.43949 38.846 3.23717C37.6321 3.23717 36.0135 2.6302 33.788 2.6302C33.181 2.6302 30.5508 3.23717 29.3368 3.23717C25.2904 3.64182 22.8625 5.2604 20.03 7.08131C19.8277 7.48595 18.2091 8.09292 18.0068 8.29525C16.9951 9.10454 16.1858 10.1162 14.9719 10.7231L13.758 11.3301C13.3533 11.5324 13.5556 12.3417 13.3533 12.7464C12.9487 13.151 11.7347 13.5556 11.3301 14.1626C10.5208 15.1742 10.5208 15.5789 9.91383 16.5905C9.30686 17.1975 9.50919 18.2091 8.90222 18.816C8.49757 19.2207 8.09292 19.6253 7.8906 20.03C7.8906 20.2323 7.8906 20.4346 7.8906 20.637C7.8906 21.0416 7.8906 21.6486 7.8906 21.8509C7.8906 22.0532 6.87899 22.6602 6.87899 23.0648C6.87899 23.8741 5.86737 25.4927 5.86737 26.302C5.86737 28.5276 6.06969 29.3368 6.06969 31.967C6.06969 32.7763 6.06969 33.5856 5.86737 34.3949C5.86737 36.0135 7.08131 37.4298 7.48595 38.6437C7.48595 38.846 7.48595 39.0484 7.48595 39.0484C7.48595 39.453 7.48595 39.6553 7.48595 40.06C7.48595 40.2623 7.48595 40.4646 7.48595 40.4646C8.29525 41.6786 9.71151 42.0832 10.9254 42.8925C11.3301 43.2971 11.5324 44.3088 12.1394 44.5111C12.1394 44.7134 12.3417 44.7134 12.544 44.7134C12.9487 44.7134 12.9487 44.5111 13.3533 44.5111C14.1626 45.118 15.1742 45.9273 16.1858 46.1297C17.1975 46.5343 18.4114 46.5343 19.6253 46.5343C20.8393 46.5343 22.4579 46.5343 23.6718 46.1297C27.7183 45.118 30.9554 42.4878 31.9671 40.6669C32.1694 40.06 32.1694 39.6553 32.574 39.0484C32.7763 38.4414 33.788 37.4298 34.1926 36.8228C34.5972 35.6089 35.0019 34.1926 35.0019 32.3717C35.0019 29.7415 34.1926 27.1113 31.9671 26.302C31.9671 26.302 31.7647 26.302 31.5624 26.302C30.9554 26.302 29.7415 26.7066 28.7299 26.7066H28.3252C27.5159 26.7066 27.1113 25.695 27.1113 25.0881C27.1113 24.6834 27.1113 24.6834 27.3136 24.2788C27.7183 22.8625 28.9322 22.4579 30.3485 22.4579C31.3601 22.4579 32.574 22.8625 33.3833 23.4695C35.8112 25.0881 37.2275 28.3252 37.2275 31.1578C37.2275 35.2042 36.4182 39.2507 33.9903 42.0832C31.5624 45.118 27.9206 47.5459 24.0764 48.3552C23.0648 48.7599 20.8393 49.1645 18.2091 49.1645C16.9951 49.1645 15.5789 49.1645 14.1626 48.7599C9.10454 47.7482 5.46272 44.5111 3.03485 40.6669C1.61858 38.2391 0 33.9903 0 29.5392C0 28.1229 0 27.1113 0.404646 25.695C0.606969 25.0881 0.606969 24.6834 0.606969 24.0764V23.2672C0.606969 22.4579 0.606969 21.8509 1.01162 20.8393C1.21394 19.8277 1.61858 18.6137 2.42788 16.9951C2.83252 16.3882 3.64182 15.9835 3.84414 15.3766C4.45111 14.5673 4.45111 13.758 5.05808 12.9487C7.28363 9.71151 12.3417 5.2604 15.3766 3.84414C17.1975 2.83252 20.4346 1.41626 22.4579 1.41626C22.6602 1.41626 22.8625 1.41626 23.4695 1.41626C25.8974 0.404646 28.9322 0 30.5508 0C31.3601 0 32.1694 0 32.9787 0C37.0251 0 40.2623 0.606969 43.7018 1.61858C48.5575 3.03485 51.3901 5.2604 53.8179 9.10454C55.4365 11.9371 56.6505 14.7696 56.8528 18.0068V19.0184C56.8528 20.637 56.6505 21.0416 56.0435 23.0648C55.8412 23.6718 56.2458 24.4811 56.2458 25.2904ZM84.3687 9.71151C82.1432 10.7231 79.3107 11.7347 77.4897 13.3533C76.6805 14.1626 76.2758 14.7696 75.4665 15.3766C75.4665 15.5789 75.2642 15.5789 75.0619 15.5789C74.8595 15.5789 74.6572 15.5789 74.6572 15.5789C73.6456 16.3882 73.4433 17.3998 72.4317 18.0068L71.8247 18.4114C71.4201 18.4114 71.0154 19.423 70.8131 19.6253C70.4084 19.8277 69.8015 21.2439 69.3968 21.2439C69.1945 21.4462 69.1945 21.6486 68.9922 21.8509C68.5875 22.2555 67.9806 22.4579 67.5759 23.2672C67.3736 24.0764 65.9573 24.0764 65.755 24.8857C65.148 26.0997 63.7318 26.7066 63.3271 27.7183C61.9109 30.1461 60.09 31.7647 58.876 33.5856C58.6737 33.788 56.0435 38.0367 55.6389 38.6437C55.2342 39.0484 54.6272 39.2507 54.2226 39.6553C54.0203 40.06 54.0203 40.6669 53.8179 40.8693C53.211 42.2855 51.5924 43.7018 50.9854 45.5227C50.7831 46.1297 50.1761 46.1297 49.7715 46.7366V47.1413C49.7715 47.3436 49.7715 47.7482 49.7715 47.9506C49.5692 49.5692 49.3668 50.1761 48.9622 51.1877C50.1761 51.3901 51.3901 51.5924 52.604 51.5924C53.0087 51.5924 53.6156 51.5924 54.0203 51.5924C55.4365 51.3901 57.2574 51.3901 59.0783 51.1877C60.2923 50.9854 68.3852 47.7482 68.9922 47.7482C69.1945 47.7482 69.8015 46.939 70.0038 46.939C71.8247 45.9273 75.0619 44.1064 76.2758 43.2971C77.6921 42.0832 79.513 40.8693 80.9292 39.453C82.9525 37.4298 84.9757 34.5972 85.178 34.3949C86.7966 32.574 87.4036 30.5508 88.4152 28.9322C90.0338 26.0997 92.2593 20.4346 92.4617 16.3882C92.4617 15.5789 92.664 15.3766 92.8663 14.9719C92.8663 14.5673 92.8663 14.3649 92.8663 13.9603C92.8663 12.1394 92.057 10.1162 91.0454 9.50918C90.0338 8.90222 89.0222 8.69989 87.8082 8.69989C86.5943 8.69989 85.178 9.10454 84.3687 9.71151Z" fill="white"/>
<path d="M116.538 35.4066C116.74 35.2043 116.538 36.4182 113.706 39.6554C113.301 40.2624 112.492 40.8694 111.885 41.4763C110.873 42.4879 110.266 43.0949 109.659 44.1065C109.254 44.5112 107.838 45.1181 107.434 45.7251C105.815 47.7483 104.196 49.5692 102.173 51.5925C101.769 51.9971 100.15 54.0204 99.9476 54.2227C99.9476 54.8297 99.7453 55.032 99.543 55.6389C98.7337 58.0668 97.3174 60.2924 96.5081 62.9226C96.1035 64.3388 96.1035 65.7551 95.6988 67.1714C95.2942 68.5876 94.4849 70.0039 94.4849 71.8248C94.4849 72.0271 94.6872 72.2294 94.8895 72.2294C95.0919 72.2294 95.2942 72.2294 95.4965 71.8248C96.5081 71.0155 97.1151 70.2062 97.9244 69.1946C98.329 68.5876 98.936 67.576 99.543 67.1714C99.9476 66.7667 100.757 66.3621 101.364 65.9574C101.364 65.7551 101.364 65.5528 101.364 65.3505C101.769 64.5412 103.185 63.7319 103.994 63.1249L106.017 61.1017C107.231 59.8877 108.445 59.0784 110.064 58.0668C110.266 57.8645 110.671 57.2575 110.873 57.0552C111.278 56.6506 111.885 56.8529 112.289 56.6506C112.896 56.2459 113.301 55.6389 114.11 55.032C114.11 54.8297 117.55 53.6157 117.752 53.6157C118.359 53.6157 120.18 54.0204 120.585 54.2227C121.799 55.2343 122.203 56.6506 122.203 58.4715C122.203 59.2808 122.203 60.09 122.001 60.8993C122.001 61.304 121.192 61.911 121.192 62.5179C120.989 63.5295 121.192 64.5412 120.787 65.7551C120.585 66.969 119.775 68.3853 119.573 69.5992C119.573 70.2062 119.573 70.6108 119.573 71.2178V72.8364C119.573 73.2411 119.573 74.0503 119.371 74.6573C119.168 74.6573 119.168 74.8596 118.966 75.062V75.2643C118.966 75.6689 119.168 75.8712 119.168 76.2759C119.168 77.0852 118.764 77.8945 118.764 78.5014C118.764 79.1084 118.764 79.7154 119.168 80.12C119.371 80.5247 119.978 80.9293 120.585 80.9293C120.787 80.9293 121.394 80.727 121.799 80.727L122.81 80.5247C123.619 80.12 124.429 79.5131 125.036 79.1084C125.44 78.9061 125.845 78.0968 126.047 77.6922C127.059 77.0852 128.273 76.4782 129.082 75.4666C129.891 74.455 130.296 73.6457 131.105 73.0387C132.522 72.0271 134.343 68.183 136.366 68.183L136.568 68.3853C136.568 68.5876 136.973 68.7899 136.973 69.1946C136.973 69.3969 136.973 69.3969 136.973 69.5992C136.163 71.2178 132.926 74.455 131.51 75.6689C130.701 76.4782 129.487 76.8829 128.677 77.6922C127.868 78.2991 127.666 79.3107 126.857 79.7154L124.226 81.5363C124.024 81.5363 123.417 82.1433 123.215 82.3456L123.012 82.5479C122.81 82.5479 122.81 82.5479 122.608 82.5479C122.001 82.9526 122.81 82.9526 120.989 84.1665C120.787 84.3688 119.978 84.1665 119.978 84.3688C119.573 84.5711 118.764 85.5828 118.764 85.5828C118.359 85.5828 117.55 85.7851 116.74 85.7851C115.931 85.7851 115.122 85.7851 114.515 85.3804C113.503 84.7735 112.694 83.9642 112.289 82.7502C112.087 81.9409 111.885 81.1317 111.885 80.12C111.885 78.9061 112.087 77.6922 112.087 76.6805C112.087 76.6805 111.885 75.6689 111.885 74.8596V74.455C112.694 72.0271 112.694 68.5876 113.503 66.1597C114.313 63.5295 114.717 63.3272 115.122 60.8993V60.2924C115.122 59.4831 114.717 59.0784 114.11 59.0784C113.908 59.0784 113.706 59.2808 113.301 59.2808C112.492 59.6854 112.289 60.09 111.48 60.697C111.075 61.1017 110.671 61.1017 110.266 61.304C110.064 61.7086 109.861 62.1133 109.457 62.3156C109.254 62.3156 109.052 62.3156 108.648 62.3156C108.243 62.5179 108.243 63.1249 107.838 63.3272C107.434 63.7319 106.827 63.9342 106.422 64.1365C106.017 64.5412 106.017 65.1481 105.815 65.3505C105.41 65.9574 104.601 66.5644 104.196 67.1714C103.589 67.9806 102.375 68.3853 101.769 69.1946C100.757 70.8132 99.7453 72.2294 98.5313 73.4434C98.329 73.6457 98.1267 73.6457 97.7221 73.848C97.3174 74.455 96.7104 75.4666 96.1035 75.8713C96.1035 75.8713 95.6988 75.8712 95.4965 76.2759C95.4965 76.4782 95.4965 76.8829 95.2942 77.0852C94.4849 77.8945 93.6756 78.2991 93.2709 79.3107C92.8663 79.7154 93.0686 80.3224 92.8663 80.9293C92.057 82.5479 91.0454 84.1665 90.0338 85.5828C89.6291 86.3921 89.4268 86.999 88.2129 87.606C87.8082 88.0106 86.9989 88.0106 86.392 88.0106C85.9873 88.0106 85.5827 88.0106 85.178 87.8083C84.1664 87.4037 84.1664 86.999 84.1664 85.3804C84.1664 84.7735 84.3687 84.3688 84.5711 83.5595C84.7734 82.9526 85.3803 82.1433 85.5827 81.334L85.785 79.1084C85.9873 77.8945 87.2013 76.2759 87.2013 75.062C87.2013 74.455 87.2013 73.6457 87.2013 73.0387C87.4036 72.0271 88.0105 71.0155 88.2129 70.0039C88.6175 68.9923 90.6407 63.9342 91.2477 61.1017C91.2477 60.697 91.2477 60.09 91.2477 60.09H90.8431C90.6407 60.09 90.4384 60.09 90.0338 60.4947C89.8315 60.697 89.4268 61.7086 89.0222 62.1133C87.6059 63.5295 86.9989 64.7435 85.5827 65.7551C84.5711 66.5644 83.9641 67.3737 83.3571 68.183C83.3571 68.183 83.1548 68.183 82.9525 68.183C82.7501 68.183 82.5478 68.183 82.5478 68.183C82.3455 68.3853 82.3455 68.5876 82.3455 68.9923C81.9409 69.5992 81.5362 70.4085 81.1316 70.6108C80.9292 70.8132 80.3223 71.0155 80.1199 71.0155C79.9176 71.0155 79.7153 71.0155 79.7153 70.8132C79.513 70.4085 79.3107 70.4085 79.3107 70.2062C79.3107 70.0039 79.513 69.8016 79.513 69.8016C79.513 69.8016 80.3223 68.9923 80.5246 68.7899L81.5362 67.576C82.3455 66.5644 82.7501 65.9574 83.3571 65.3505C84.1664 64.5412 85.178 63.9342 85.5827 62.9226C87.8082 59.8877 89.6291 57.8645 91.45 56.0436C92.4617 55.032 92.8663 53.6157 93.0686 52.8064L93.4733 51.1878C95.2942 47.3437 97.5197 42.6903 99.1383 39.0484C100.15 36.8229 100.959 34.1927 102.173 32.1695C103.792 29.3369 106.422 24.8858 108.243 22.2556C108.445 21.851 109.457 21.244 109.861 20.8394C110.266 20.637 109.861 19.8278 110.266 19.6254C111.885 17.8045 114.92 14.7697 117.145 13.5557C117.752 13.1511 119.978 12.3418 121.394 12.3418C121.596 12.3418 121.799 12.3418 122.001 12.3418C123.619 12.7464 124.631 13.3534 125.44 14.7697C125.643 15.1743 125.643 15.7813 125.643 16.5906C125.643 17.6022 125.44 18.8161 125.44 19.8278C125.238 23.6719 123.417 25.8974 122.405 28.3253C122.001 29.7416 119.573 33.1811 118.359 34.395C117.55 34.7997 116.538 35.002 116.538 35.4066ZM102.78 48.3553C103.185 48.153 103.792 47.3437 103.994 47.1414C105.006 46.1298 105.41 46.5344 106.22 45.5228C106.422 45.1181 107.434 44.3088 107.838 43.9042C108.85 42.2856 109.659 42.2856 110.064 41.6786C111.278 39.8577 112.087 38.8461 113.503 37.2275C113.706 36.8229 114.515 35.609 114.717 35.4066C114.92 35.002 115.729 34.5973 116.538 33.5857C117.347 32.1695 119.978 29.5393 120.585 28.123C122.001 25.4928 123.012 22.6603 123.619 19.4231C123.822 19.2208 123.822 18.8161 123.822 18.4115C123.822 17.1976 123.417 15.7813 122.405 15.7813C121.596 15.7813 120.18 15.9836 119.573 16.5906C118.966 17.1976 117.954 18.0068 117.55 18.6138C117.347 18.6138 117.347 18.8161 117.347 18.8161C117.347 19.0185 117.347 19.2208 117.347 19.2208C116.336 20.2324 113.099 23.0649 112.289 24.4812C111.278 26.3021 111.48 26.3021 110.468 28.123C110.266 28.9323 109.659 29.5393 109.457 30.1462C109.052 31.3602 107.434 32.5741 107.029 33.788C106.22 35.8113 106.017 36.8229 105.006 38.8461C104.196 40.4647 102.982 42.4879 102.578 44.5112C102.578 44.7135 101.364 48.153 101.364 48.9623C101.364 49.1646 101.364 49.3669 101.566 49.3669C101.566 49.1646 102.578 48.3553 102.78 48.3553Z" fill="white"/>
<path d="M161.656 72.6338H162.668C163.275 72.6338 163.882 72.6338 164.489 72.4315C165.298 72.2292 165.703 72.0268 166.31 71.6222C166.31 71.6222 167.321 71.2176 167.928 71.0152C168.737 70.6106 169.547 69.8013 170.154 69.1943C170.558 68.992 170.963 68.5874 171.368 68.5874C171.368 68.5874 172.177 69.3966 172.177 69.8013C172.177 70.2059 169.142 72.2292 168.535 72.4315C168.131 72.8361 167.726 73.0385 167.119 73.2408C166.917 73.2408 166.512 73.2408 166.31 73.2408C166.107 73.2408 165.905 73.6454 165.5 73.6454C163.882 74.2524 162.465 74.4547 161.252 74.4547C159.633 74.4547 158.419 74.0501 157.407 73.2408C156.598 74.8594 156.193 74.657 155.182 75.871L154.98 76.0733C153.968 77.4896 153.159 78.7035 151.945 79.7151C151.54 80.1198 151.135 79.9174 150.731 80.3221C150.528 80.5244 150.326 81.3337 149.921 81.536C149.921 81.536 149.921 81.7384 149.517 81.9407C148.303 82.9523 147.494 83.5593 146.28 84.1662C144.661 84.7732 143.042 85.1778 141.626 85.1778C138.794 85.1778 135.961 84.1662 134.545 81.536C133.736 79.7151 133.533 77.4896 133.533 75.0617C133.533 73.0385 133.736 71.2176 134.14 69.8013C134.545 68.5874 134.545 67.3734 135.152 66.3618C135.354 65.9572 135.556 65.9572 135.961 65.5525C136.568 64.5409 136.77 63.1246 137.377 62.113C138.389 60.2921 139.603 58.8758 141.222 57.0549C141.424 56.6503 141.829 56.6503 142.233 56.2456C142.435 55.841 142.84 55.234 143.245 54.8294C144.863 53.2108 146.887 51.9969 148.91 51.1876C149.112 51.1876 149.314 51.1876 149.314 51.1876H150.124C151.54 51.1876 152.956 50.176 154.17 49.9736C154.575 49.9736 155.384 49.9736 155.789 49.9736C157.61 49.9736 159.228 50.5806 160.847 51.9969C161.858 52.8062 162.87 54.6271 162.87 57.2573V57.8642C162.87 58.2689 162.668 58.4712 162.465 58.8758C162.465 59.2805 162.465 60.2921 162.465 60.4944C162.263 61.506 162.061 62.5177 161.454 63.9339C161.454 66.5641 160.24 69.599 159.026 71.2176C159.228 72.2292 160.24 72.6338 161.656 72.6338ZM156.8 53.8178C156.598 53.8178 156.193 53.8178 155.991 53.8178C153.563 54.2224 152.349 55.0317 150.326 56.448C149.112 57.2573 148.505 58.4712 147.494 59.4828C146.684 60.4944 145.673 61.1014 145.066 62.3153C144.661 62.9223 144.863 63.5293 143.852 64.3386C143.245 64.7432 142.435 64.7432 142.233 65.3502C142.233 65.7548 142.435 66.3618 142.435 66.7664C142.435 68.1827 140.817 70.4083 140.412 71.8245C140.21 72.8361 139.603 73.4431 139.401 74.4547V76.478C139.401 78.5012 139.805 80.3221 141.424 81.1314C142.233 81.536 142.84 81.536 143.649 81.536C145.268 81.536 146.887 81.1314 148.101 79.9174C149.517 78.9058 150.326 77.8942 151.338 76.6803C152.754 75.0617 154.17 73.4431 155.586 71.2176C154.777 70.4083 153.968 68.5874 153.766 67.5757C153.563 66.9688 153.563 66.5641 153.563 65.9572V63.327C153.563 62.113 154.575 61.1014 155.586 60.2921C156.396 59.8875 157.205 59.6851 157.812 59.6851C158.217 59.6851 158.824 59.8875 159.228 60.0898C159.431 60.2921 159.633 60.4944 159.633 60.4944L159.835 59.0782C159.835 58.8758 160.038 58.4712 160.038 58.2689C160.038 57.8642 159.835 57.4596 159.835 57.2573C159.633 56.2456 159.633 55.234 159.026 54.4247C158.621 54.2224 157.61 53.8178 156.8 53.8178Z" fill="white"/>
<path d="M173.998 91.0455C173.998 91.8548 174.807 93.4734 174.807 94.0804C174.807 94.8896 176.223 95.9013 177.437 97.1152C178.044 97.7222 178.651 97.7222 179.461 97.7222C179.865 97.7222 180.27 97.7222 180.675 97.7222C181.281 97.7222 181.686 97.9245 181.888 98.5314C182.091 98.9361 182.091 99.1384 182.091 99.3407C182.091 100.15 181.484 100.757 180.472 100.757C180.27 100.757 180.068 100.757 179.865 100.757C179.056 100.555 177.235 99.9477 176.628 99.3407C170.761 95.2943 169.142 90.4385 168.737 80.9293V80.5247C168.737 80.1201 168.737 80.1201 168.737 79.9177C168.737 79.7154 168.737 79.5131 168.737 78.9061C168.737 78.5015 168.737 78.0968 168.94 77.8945C168.94 77.0852 168.94 76.4782 168.94 75.8713C169.344 71.6225 171.165 65.7551 172.784 61.7086C172.986 60.8994 172.784 60.0901 173.189 59.4831C173.796 58.6738 174.807 57.4599 174.807 56.2459C174.807 55.2343 175.009 54.2227 175.212 53.4134C175.414 53.0088 176.021 52.4018 176.223 51.7948C176.223 51.3902 176.021 51.1879 176.021 50.7832C176.021 50.7832 176.021 50.5809 176.223 50.3786C176.83 48.3553 178.044 47.1414 178.247 44.9158C178.247 44.3089 176.628 44.3089 176.223 44.3089C175.819 44.3089 175.414 44.3089 175.009 44.3089C174.2 44.3089 173.391 43.2973 173.189 42.6903C173.189 42.6903 174.2 42.2856 174.807 42.2856C175.616 42.2856 176.426 42.2856 177.033 41.881L180.675 40.8694C180.877 39.2508 182.091 37.8345 182.698 36.6206C183.102 35.8113 183.102 35.002 183.709 34.1927C184.519 32.5741 186.137 31.7648 187.149 30.1463C188.16 28.5277 189.374 26.7068 190.993 25.2905C192.409 24.0766 193.016 21.6487 195.039 21.6487C195.242 21.6487 196.051 21.6487 196.253 21.6487C196.456 21.6487 196.658 21.6487 196.86 21.6487C197.063 21.851 197.265 22.0533 197.265 22.458V22.6603C196.051 24.8859 194.837 27.1114 193.421 29.7416C192.612 30.9555 191.398 32.1695 190.791 33.3834C190.588 33.3834 190.588 33.3834 190.386 33.5857C189.981 33.9904 190.184 34.5974 189.981 35.002C189.981 35.2043 188.97 36.0136 188.97 36.0136C188.97 36.4183 188.97 36.6206 188.97 36.8229V37.4299C188.767 38.0368 188.16 38.8461 188.16 39.8578C188.565 40.0601 188.767 40.2624 189.172 40.2624C189.779 40.2624 190.386 40.0601 190.791 39.8578C190.791 39.8578 190.993 39.8578 191.195 39.8578C191.398 39.8578 192.005 39.8578 192.005 40.0601C193.219 39.8578 194.432 39.4531 195.242 39.2508C197.67 38.6438 200.502 37.8345 204.549 37.8345H206.167C208.393 38.0369 211.225 38.6438 211.225 40.8694C211.023 43.0949 210.214 43.7019 209 44.9158C208.797 44.9158 208.595 45.3205 208.19 45.3205C208.19 45.3205 208.19 45.1182 208.19 44.7135C208.19 44.1065 208.393 43.7019 208.393 43.2972C208.393 43.0949 208.19 42.6903 208.19 42.488C207.988 42.0833 207.786 41.881 207.179 41.6787C206.774 41.274 205.358 41.0717 205.156 41.0717C204.549 40.8694 204.346 40.667 204.144 40.667C203.739 40.667 203.537 40.667 202.728 40.667C202.525 40.667 201.918 40.667 201.514 40.667C200.502 40.667 200.3 40.8694 199.288 41.0717C197.063 41.4763 197.467 41.6787 196.253 41.6787C195.849 41.6787 195.242 41.881 194.837 42.0833H193.016C192.612 42.0833 192.207 42.0833 191.802 42.0833C190.184 42.488 188.565 42.8926 187.351 43.0949C186.947 44.5112 185.935 45.9275 185.126 47.1414C184.519 47.9507 184.519 49.3669 184.114 50.3786L182.698 53.0088C182.495 53.8181 182.495 54.6273 182.091 55.4366C181.484 56.6506 180.472 58.4715 180.068 59.6854C179.258 62.1133 178.651 64.3388 178.044 66.5644C177.235 68.79 177.235 70.6109 176.223 72.4318C176.021 72.8364 175.212 74.455 175.212 75.062C175.009 77.8945 173.998 80.727 173.998 83.3572C173.998 83.9642 173.998 84.3688 174.2 84.9758C173.796 86.5944 173.593 88.4153 173.998 91.0455Z" fill="white"/>
<path d="M213.046 72.6339H214.058C214.665 72.6339 215.272 72.6339 215.879 72.4316C216.688 72.2292 217.093 72.0269 217.7 71.6223C217.7 71.6223 218.711 71.2176 219.318 71.0153C220.128 70.6107 220.937 69.8014 221.544 69.1944C221.949 68.9921 222.353 68.5874 222.758 68.5874C222.758 68.5874 223.567 69.3967 223.567 69.8014C223.567 70.206 220.532 72.2292 219.925 72.4316C219.521 72.8362 219.116 73.0385 218.509 73.2409C218.307 73.2409 217.902 73.2409 217.7 73.2409C217.497 73.2409 217.295 73.6455 216.89 73.6455C215.272 74.2525 213.856 74.4548 212.642 74.4548C211.023 74.4548 209.809 74.0501 208.798 73.2409C207.988 74.8594 207.584 74.6571 206.572 75.8711L206.37 76.0734C205.358 77.4896 204.549 78.7036 203.335 79.7152C202.93 80.1198 202.526 79.9175 202.121 80.3222C201.919 80.5245 201.716 81.3338 201.312 81.5361C201.312 81.5361 201.312 81.7384 200.907 81.9408C199.693 82.9524 198.884 83.5593 197.67 84.1663C196.051 84.7733 194.433 85.1779 193.016 85.1779C190.184 85.1779 187.351 84.1663 185.935 81.5361C185.126 79.9175 184.721 77.692 184.721 75.2641C184.721 73.2409 184.923 71.4199 185.328 70.0037C185.733 68.7897 185.733 67.5758 186.34 66.5642C186.542 66.1595 186.744 66.1595 187.149 65.7549C187.756 64.7433 187.958 63.327 188.565 62.3154C189.577 60.4945 190.791 59.0782 192.409 57.2573C192.612 56.8527 193.016 56.8527 193.421 56.448C193.623 56.0434 194.028 55.4364 194.433 55.0318C196.051 53.4132 198.074 52.1993 200.098 51.39C200.3 51.39 200.502 51.39 200.502 51.39H201.312C202.728 51.39 204.144 50.3783 205.358 50.176C205.763 50.176 206.572 50.176 206.977 50.176C208.798 50.176 210.416 50.783 212.035 52.1993C213.046 53.0085 214.058 54.8295 214.058 57.4597V58.0666C214.058 58.4713 213.856 58.6736 213.653 59.0782C213.653 59.4829 213.653 60.4945 213.653 60.6968C213.451 61.7084 213.249 62.7201 212.642 64.1363C212.642 66.7665 211.428 69.8014 210.214 71.4199C210.821 72.2292 211.832 72.6339 213.046 72.6339ZM208.191 53.8178C207.988 53.8178 207.584 53.8178 207.381 53.8178C204.953 54.2225 203.739 55.0318 201.716 56.448C200.502 57.2573 199.895 58.4713 198.884 59.4829C198.074 60.4945 197.063 61.1015 196.456 62.3154C196.051 62.9224 196.253 63.5293 195.242 64.3386C194.635 64.7433 193.826 64.7433 193.623 65.3503C193.623 65.7549 193.826 66.3619 193.826 66.7665C193.826 68.1828 192.207 70.4083 191.802 71.8246C191.6 72.8362 190.993 73.4432 190.791 74.4548V76.478C190.791 78.5013 191.195 80.3222 192.814 81.1315C193.623 81.5361 194.23 81.5361 195.04 81.5361C196.658 81.5361 198.277 81.1315 199.491 79.9175C200.907 78.9059 201.716 77.8943 202.728 76.6803C204.144 75.0618 205.56 73.4432 206.977 71.2176C206.167 70.4083 205.358 68.5874 205.156 67.5758C204.953 66.9688 204.953 66.5642 204.953 65.9572V63.327C204.953 62.1131 205.965 61.1015 206.977 60.2922C207.786 59.8875 208.595 59.6852 209.202 59.6852C209.607 59.6852 210.214 59.8875 210.618 60.0899C210.821 60.2922 211.023 60.4945 211.023 60.4945L211.225 59.0782C211.225 58.8759 211.428 58.4713 211.428 58.2689C211.428 57.8643 211.225 57.4597 211.225 57.2573C211.023 56.2457 211.023 55.2341 210.416 54.4248C210.214 54.2225 209.202 53.8178 208.191 53.8178Z" fill="white"/>
<path d="M242.383 85.3803C242.383 85.3803 242.383 85.178 242.383 84.9757C242.383 84.7733 242.383 84.7733 242.383 84.571C243.192 82.1431 244.002 79.7153 244.204 76.8827C244.204 75.8711 245.216 75.2642 245.216 74.2525C245.418 73.2409 245.216 72.634 245.62 72.027C246.025 71.42 246.025 71.0154 246.025 70.2061C246.227 68.3852 247.239 65.3503 247.441 63.7317H247.036C246.025 65.3503 244.811 67.3736 243.395 68.7898C241.574 70.8131 239.753 72.8363 237.73 74.4549C237.527 74.8595 236.92 74.8595 236.718 75.0618C236.516 75.4665 236.313 75.8711 236.111 76.0735C235.909 76.4781 235.302 77.0851 233.885 78.0967C231.862 79.5129 230.244 80.9292 228.22 82.3455C227.209 82.7501 224.983 84.3687 222.758 84.3687C221.746 84.3687 220.734 83.964 219.925 83.3571C219.318 82.9524 218.711 80.5246 218.711 79.1083C218.711 74.8595 219.925 70.6107 221.948 67.7782C222.758 67.1712 222.555 66.1596 222.96 65.755C223.365 65.3503 223.567 64.7434 223.972 64.3387C224.781 63.3271 225.59 61.9108 226.197 60.6969C226.804 59.6853 228.018 59.483 228.827 58.6737C229.03 58.6737 229.03 58.0667 229.232 57.8644C229.839 57.2574 230.851 56.8528 231.255 56.4481C231.458 56.0435 232.065 55.6388 232.469 55.2342C233.886 54.2226 236.313 53.2109 237.932 52.8063C239.146 52.4016 241.371 51.997 243.395 51.997C244.204 51.997 245.216 51.997 245.823 52.1993C249.06 53.2109 249.869 54.8295 250.678 54.8295C251.488 53.8179 251.083 51.997 252.095 51.39C252.702 50.9854 253.713 49.9738 254.725 49.5691C255.129 49.5691 256.343 48.9622 256.748 48.9622C257.153 48.9622 257.557 49.3668 257.557 49.9738C257.355 53.4133 255.332 56.2458 254.725 58.4713C254.522 59.2806 254.725 60.0899 254.522 60.6969C252.499 66.9689 251.285 74.8595 249.262 80.7269C248.857 81.7385 248.857 82.7501 248.655 83.7617C248.655 84.3687 248.453 85.178 248.25 85.785C247.441 88.2128 246.43 92.2593 245.823 94.0802C247.036 93.8779 248.453 93.8779 250.071 93.8779C252.297 93.8779 254.32 94.0802 255.939 94.6872C256.343 94.8895 257.355 95.0918 257.557 95.0918C258.569 95.0918 260.187 96.1034 260.794 96.7104C261.604 97.722 262.008 98.5313 262.008 99.1383C262.008 99.5429 261.806 100.15 261.604 100.15C261.401 100.555 260.794 100.555 260.592 100.555C260.188 100.555 259.581 100.15 259.378 99.9476C258.771 99.5429 258.771 98.1267 258.164 97.722C256.343 96.7104 253.106 96.1034 250.274 96.1034C248.453 96.1034 246.834 96.3058 245.62 96.9127C245.013 98.7336 243.192 103.387 242.383 105.006C241.574 106.827 241.574 106.624 240.764 108.445C240.562 108.85 239.955 109.457 239.753 109.659C239.348 110.671 239.551 111.48 238.741 112.289L234.492 120.787C234.29 120.989 233.481 121.596 233.076 121.798C232.874 122.001 233.076 122.203 232.874 122.405C232.469 123.012 231.66 123.215 231.255 123.619C231.053 123.822 231.053 124.024 231.053 124.226C230.851 125.036 230.851 125.643 230.648 126.25C225.59 132.926 221.544 137.175 214.26 141.424C211.225 143.245 208.595 143.649 205.965 143.852C204.549 143.852 203.942 144.863 202.728 144.863C202.121 144.863 201.514 144.863 201.109 144.863C200.705 144.863 200.098 144.863 199.288 144.863C196.86 144.863 193.623 143.852 191.6 141.424C189.981 139.401 189.577 137.175 189.577 134.949V134.343C189.577 131.308 189.779 129.689 190.993 127.059C191.802 125.44 193.016 123.215 194.23 121.798C195.039 120.989 195.242 120.18 195.849 119.371C198.074 116.74 200.098 114.717 202.728 112.492C204.144 111.682 205.763 110.064 206.977 109.254C208.19 108.243 209.607 107.838 210.821 106.827C211.63 106.422 212.439 105.208 213.046 104.803C213.653 104.601 214.665 104.399 215.069 104.196C215.474 103.792 215.879 102.982 216.486 102.578C217.295 102.375 218.509 101.364 219.318 100.959C220.734 100.15 222.151 99.7453 223.567 99.3406C227.411 97.3174 232.267 95.4965 235.909 94.8895C237.527 94.4848 238.741 94.4849 239.753 93.6756C239.955 92.8663 242.181 86.7966 242.383 85.3803ZM198.479 119.775C198.277 120.585 196.86 122.203 196.051 123.417C193.826 126.452 193.826 126.857 192.409 130.903C192.207 131.915 192.005 133.129 192.005 134.545C192.005 136.77 192.409 138.996 193.421 140.008C195.039 141.828 197.265 142.435 199.491 142.435C204.144 142.435 209.607 139.805 212.439 137.58C213.856 136.568 214.867 135.961 217.295 133.938C217.7 133.533 218.104 133.533 218.509 133.129C219.318 132.522 219.723 131.308 220.532 130.701C220.937 130.296 221.341 129.689 221.544 129.284C222.758 128.475 223.972 126.25 224.781 125.238C224.781 125.036 224.983 124.833 225.186 124.833C227.209 122.608 229.03 120.382 230.041 117.752C230.041 117.347 230.041 117.145 230.244 116.74C230.446 115.931 231.458 114.919 231.66 114.313C231.862 113.706 231.862 112.896 232.469 112.289C233.886 109.254 235.099 106.422 236.111 102.982C236.92 101.768 237.73 99.3406 237.932 97.9243C236.92 97.9243 236.111 98.1267 235.504 98.329C235.099 98.329 234.29 98.1267 233.885 98.1267C233.279 98.1267 232.672 98.936 232.267 99.1383C231.458 99.5429 231.255 99.1383 230.244 99.5429C229.232 99.7452 228.625 99.9476 227.816 100.555C225.995 101.162 224.376 101.971 222.555 102.982C221.746 103.185 220.735 103.387 220.128 103.792C217.902 105.208 214.665 107.636 211.832 109.254C210.618 109.861 209 111.075 207.786 111.885C205.763 113.099 203.942 115.122 202.323 116.538C201.918 116.943 201.918 117.752 201.109 118.359C200.3 118.764 198.884 118.966 198.479 119.775ZM249.06 57.0551C249.06 55.4365 246.834 54.8295 245.216 54.8295C244.002 54.8295 242.181 55.2342 241.169 55.6388C239.146 56.6504 237.325 58.4713 235.706 60.0899C235.302 60.6969 234.088 60.6969 233.683 61.1015C233.481 61.3039 233.481 61.5062 233.481 61.7085C233.481 61.9108 233.481 62.1132 233.481 62.3155C232.874 62.9225 232.065 63.7317 231.66 64.3387C230.851 65.148 230.446 65.9573 229.839 66.9689C229.434 67.3736 228.22 68.3852 227.816 68.7898C226.804 70.4084 226.804 71.6223 225.995 73.4433C224.983 75.0618 224.579 77.0851 224.579 78.906C224.579 79.3106 224.579 79.7153 224.781 79.9176C224.781 80.3222 225.388 80.5246 225.793 80.5246C227.613 80.5246 229.03 79.3106 230.446 78.5013C231.458 77.8944 231.862 76.6804 232.672 76.0735C233.076 75.6688 234.492 75.2642 234.695 74.6572C234.897 74.2525 234.695 73.8479 235.099 73.6456C235.504 73.0386 236.92 72.8363 237.325 72.027C237.325 71.8247 237.325 71.6223 237.527 71.42C237.73 71.2177 238.337 71.2177 238.539 71.0154C239.348 70.0038 240.764 68.9921 241.574 67.9805C241.978 67.1712 241.978 66.5643 242.383 66.1596C243.395 65.148 244.406 64.1364 245.216 62.9225C246.43 60.4946 248.655 59.6853 249.06 57.0551Z" fill="white"/>
<path d="M273.945 48.5574C273.945 48.9621 273.946 49.3667 273.743 49.7714C273.339 50.9853 271.922 51.7946 271.518 53.0086C271.518 53.2109 271.315 53.6155 271.315 54.0202C271.315 54.8295 271.72 55.4364 272.732 56.0434C273.743 56.6504 277.587 57.8643 278.397 58.4713C279.004 58.8759 279.813 60.2922 279.813 61.5061C279.813 61.7084 279.813 61.9108 279.813 62.1131C279.408 64.541 277.992 67.1712 276.98 68.9921C276.171 70.6107 276.373 72.8362 275.969 74.2525C275.766 75.0618 275.564 75.6687 275.564 76.478C275.564 78.0966 275.969 79.9175 276.98 80.5245C277.385 80.9291 277.992 80.9291 278.599 80.9291C280.015 80.9291 281.431 80.1198 282.241 79.5129L283.657 78.7036C284.669 77.8943 285.68 77.4896 286.287 76.478C287.703 74.8594 289.929 72.4316 291.548 71.2176C292.559 70.4083 293.773 67.5758 295.594 67.5758C295.796 67.5758 295.999 67.5758 296.201 67.7781C296.201 67.9805 296.606 68.1828 296.606 68.3851C296.606 68.3851 296.403 68.5874 296.403 68.7898C295.796 69.8014 294.38 71.42 293.571 72.4316C293.166 72.8362 292.762 72.8362 292.559 73.0385C292.155 73.2409 291.952 73.8478 291.75 74.0502C290.941 74.8594 290.131 75.4664 289.322 76.0734C288.513 76.478 288.31 77.692 287.501 78.2989C285.276 79.9175 283.05 81.5361 280.42 82.9524C279.004 83.5593 277.79 83.964 276.373 83.964C273.946 83.964 271.315 82.75 270.304 80.5245C269.899 80.1198 269.899 79.3106 269.899 78.7036C269.899 77.8943 269.899 77.085 269.899 76.0734C269.899 75.4664 269.899 74.8594 269.697 74.2525C269.697 73.4432 269.899 71.6223 270.101 71.0153C270.506 68.9921 270.708 67.5758 271.315 65.7549C271.72 64.7433 272.732 63.327 272.732 62.1131C272.732 61.9108 272.732 61.7084 272.732 61.3038C272.327 60.2922 271.518 59.0782 270.101 58.8759C269.899 58.6736 269.697 58.6736 269.697 58.6736C269.697 58.6736 269.494 58.6736 269.292 58.8759C268.28 59.8875 266.864 60.8992 265.853 62.1131C264.841 63.5294 263.829 64.9456 262.615 66.1595C261.806 66.5642 260.592 67.5758 260.188 68.1828C259.378 69.1944 259.581 69.599 258.569 69.8014C257.962 69.8014 257.557 69.599 257.557 69.1944C257.557 68.9921 257.557 68.7898 257.76 68.5874C258.367 67.9805 258.771 67.5758 259.378 66.7665C259.581 66.3619 260.188 66.1596 260.592 65.7549C261.401 64.7433 262.615 63.7317 263.627 62.3154C264.234 61.7084 264.841 61.3038 265.246 60.4945C265.65 60.0899 266.055 58.8759 266.257 58.8759C266.662 58.4713 267.067 58.4713 267.471 57.8643C267.471 57.8643 267.876 56.6504 267.876 56.0434C267.673 55.6388 267.673 55.2341 267.673 54.6271V53.2109C267.673 50.5807 268.483 48.1528 269.899 46.9389C270.304 46.5342 270.911 46.3319 271.315 46.1296C271.518 46.1296 271.72 45.9272 271.72 45.9272C272.125 45.9272 272.732 46.3319 273.136 46.7365C273.743 47.1412 273.945 47.7482 273.945 48.5574Z" fill="white"/>
<path d="M316.029 70.0039L315.624 69.8015C314.815 70.6108 313.803 71.4201 312.792 72.0271C312.387 72.4317 312.387 72.8364 311.982 73.0387C311.578 73.4434 310.768 73.848 310.161 74.2526C309.757 74.6573 309.352 75.2643 308.947 75.6689C307.936 76.4782 307.126 77.2875 306.317 78.0968C303.889 79.7154 302.068 81.334 299.843 82.7502C299.236 83.1549 298.224 83.7618 297.415 84.1665C297.01 84.3688 296.403 84.5711 295.796 84.5711C295.392 84.5711 295.189 84.5711 294.987 84.5711C294.178 84.1665 292.762 83.5595 292.357 82.5479C291.952 81.5363 291.75 80.3223 291.75 78.7038C291.75 76.2759 292.357 73.4434 292.964 72.0271V71.0155C293.166 70.8132 293.368 70.6108 293.773 70.2062C294.178 69.3969 294.38 68.3853 294.987 67.7783C295.189 67.7783 295.392 67.7783 295.594 67.576V66.7667C295.594 66.3621 295.999 65.7551 296.403 65.1481C296.606 64.7435 298.022 63.1249 298.427 62.9226C298.629 62.7202 298.831 62.9226 299.236 62.5179C299.438 62.3156 299.438 61.5063 299.438 61.1016C299.438 60.09 301.664 59.6854 302.473 58.8761C302.675 58.4714 302.473 58.2691 302.878 57.8645C303.485 57.2575 304.901 56.6505 305.508 55.8412C306.722 54.8296 308.138 54.425 309.554 53.4134C310.566 52.8064 311.578 53.211 312.792 52.6041C313.196 52.1994 313.601 52.4018 314.41 52.1994C315.017 51.9971 315.826 51.5925 316.838 51.3901C317.243 51.3901 317.85 51.3901 318.254 51.3901C319.873 51.3901 321.289 51.7948 322.908 51.7948C327.156 52.4018 330.394 55.8412 330.394 59.2807C330.394 59.6854 330.394 60.09 330.394 60.2924C330.394 60.697 329.989 61.5063 328.37 61.5063C327.561 61.5063 326.954 60.697 326.954 60.4947C326.954 58.8761 327.966 58.2691 327.966 57.6622C327.966 57.0552 327.156 55.8412 326.549 55.4366C325.336 54.6273 323.717 54.2227 321.896 54.2227C319.671 54.2227 317.445 54.8296 315.624 55.6389C315.219 55.8412 314.815 55.6389 314.208 56.0436C313.601 56.2459 312.589 57.0552 312.185 57.4598L311.578 58.2691C311.173 58.6738 310.364 58.6738 309.757 59.0784C309.352 59.4831 309.352 60.2924 308.543 60.2924C307.733 60.2924 307.531 61.5063 306.924 62.1133C306.722 62.5179 305.913 63.1249 305.508 63.1249C305.103 63.5295 304.901 64.5411 304.496 65.1481C304.092 65.7551 303.282 66.1597 302.878 66.7667C301.866 68.183 301.057 69.5992 300.45 70.8132C299.236 72.6341 298.629 74.6573 298.224 76.8829C298.224 77.2875 298.224 77.6921 298.224 78.0968C298.224 78.9061 298.427 79.7154 299.641 79.9177C300.247 79.9177 301.259 79.7154 301.664 79.5131C302.675 78.9061 303.687 78.5014 304.496 77.8945C305.103 77.4898 305.508 76.8828 305.913 76.2759C306.924 75.2643 307.531 75.0619 308.543 74.2526C310.161 72.8364 311.578 71.2178 313.398 69.8015L315.826 66.7667L316.636 65.1481C317.243 63.9342 318.052 63.1249 319.064 62.5179C319.67 62.1133 321.289 61.304 321.896 61.1016C322.098 61.1016 322.098 61.1016 322.301 61.1016C323.515 61.1016 324.729 62.7202 325.133 63.7318C325.336 64.1365 325.336 64.5411 325.336 64.7435C325.336 65.5528 325.133 66.362 325.133 67.1713C325.133 68.183 324.122 70.0039 323.717 70.8132C323.312 72.0271 323.11 73.848 322.503 75.2643C322.503 75.6689 322.098 75.6689 321.694 76.4782C321.694 76.6805 321.694 76.8828 321.694 77.0852V77.6921C321.491 78.5014 321.289 79.3107 321.289 79.9177C321.289 80.3223 321.289 80.3223 321.289 80.727C321.289 81.334 322.098 81.5363 322.705 81.5363C323.11 81.5363 323.312 81.5363 323.717 81.334C324.324 81.1316 325.538 79.9177 328.573 77.8945C329.787 77.2875 330.191 76.6805 331.203 75.6689C331.405 75.2643 332.215 75.2643 332.417 74.8596C333.226 74.2527 333.833 73.6457 334.238 72.8364C334.44 72.4317 335.452 71.8248 336.059 71.6224C337.273 70.8132 339.296 67.3737 340.307 67.3737C340.914 67.3737 341.521 67.7783 341.521 68.3853C341.521 68.5876 341.521 68.5876 341.521 68.7899C341.319 69.3969 339.498 71.4201 339.094 71.8248L338.284 72.0271L336.463 74.2526C334.44 76.4782 332.417 77.8945 331.001 79.1084C330.798 79.3107 329.989 79.3107 329.787 79.5131C329.584 79.7154 329.787 80.3223 329.382 80.5247L327.561 81.7386C326.752 82.3456 324.931 82.9525 324.122 83.3572C322.705 83.9642 321.491 84.3688 320.075 84.3688C319.873 84.3688 319.67 84.3688 319.67 84.3688C318.052 84.1665 316.433 83.1549 315.624 82.1432C315.219 81.7386 315.219 80.727 315.219 79.5131C315.219 78.7038 315.219 77.8945 315.624 76.8829C314.612 74.455 315.219 72.4317 316.029 70.0039Z" fill="white"/>
<path d="M355.482 47.546C355.684 47.1413 356.089 47.1413 356.493 46.939C357.505 45.9274 357.303 45.5227 358.921 44.9158C358.921 44.9158 360.337 45.9274 360.742 46.5344C360.944 47.3436 361.147 48.1529 361.147 48.7599C361.147 50.1762 360.742 51.3901 360.337 52.604C360.337 54.2226 357.505 60.09 356.696 61.7086C356.696 62.7202 356.493 63.7318 356.291 64.5411C355.886 65.3504 355.279 66.362 355.077 67.1713C354.672 68.3852 354.672 69.5992 354.268 70.8131C353.863 71.8247 353.661 71.8247 353.458 72.8364C354.47 72.8364 355.279 70.4085 356.089 69.5992L356.898 68.5876L358.719 65.9574C358.921 65.7551 359.326 65.9574 359.528 65.7551C360.337 64.7434 361.754 63.3272 362.765 62.1132L366.407 58.2691C368.43 56.0435 370.049 54.6273 372.679 53.0087C374.5 51.9971 376.726 50.9855 378.951 50.9855C379.963 50.9855 380.974 51.1878 381.784 51.7948C383.605 52.604 384.414 55.4366 384.414 58.4714C384.414 59.0784 384.414 59.8877 384.211 60.4946C384.009 61.7086 383.605 62.1132 383.2 63.5295L382.795 65.3504C381.986 67.3736 381.177 69.3969 379.963 71.4201C379.558 72.0271 378.951 73.0387 378.749 73.6456C378.344 74.2526 377.333 74.8596 376.928 75.4666L375.916 76.8828C374.298 78.9061 371.06 80.5246 368.633 81.9409C368.228 82.3455 368.228 82.7502 367.823 82.9525C366.205 83.7618 364.182 83.9641 362.361 83.9641C359.933 83.9641 357.707 83.3572 356.089 81.5363C356.089 81.3339 355.482 80.9293 355.482 80.727C355.279 80.3223 354.875 80.5246 354.875 79.7153C354.875 79.3107 355.077 78.9061 355.279 78.9061C355.482 78.9061 355.684 78.9061 355.684 78.9061L356.898 79.513C357.707 79.9177 358.719 80.12 359.933 80.12C360.944 80.12 361.956 79.9177 362.968 79.513C364.384 78.9061 365.395 77.6921 366.205 77.0851C367.419 76.4782 368.026 75.0619 369.847 73.6456C370.251 73.4433 370.858 73.4433 371.263 73.0387C371.667 72.634 371.667 71.6224 371.87 71.0155C372.477 69.3969 373.691 67.9806 374.702 66.1597C375.512 64.9458 376.119 63.1248 376.523 61.9109C376.523 61.5063 376.523 60.8993 376.928 60.2923C377.333 59.2807 377.535 58.0668 377.535 56.8528C377.535 55.2342 377.13 53.818 375.714 53.818C373.286 53.818 369.24 56.8528 367.216 59.0784C366.609 59.6854 364.788 61.7086 364.384 62.1132C363.979 62.5179 363.777 62.5179 363.372 62.7202C361.956 64.3388 360.337 65.7551 359.326 67.3736L355.482 71.8247C354.672 73.0387 353.661 74.2526 353.054 75.4666C351.435 77.8944 350.626 80.12 349.21 82.3455C348.603 83.5595 347.996 84.3688 347.389 85.3804C346.782 86.7966 346.579 88.0106 346.175 89.4268C346.175 90.2361 345.77 90.8431 345.365 91.4501C344.961 92.8663 343.747 94.8896 343.545 95.9012C343.545 95.9012 343.545 96.1035 343.545 96.3058C343.545 97.1151 342.938 97.5198 342.533 97.9244C341.926 99.1384 342.331 99.543 342.128 100.555C338.689 111.682 339.093 109.052 337.475 113.099C337.273 113.503 337.273 113.908 337.273 114.11V115.527C337.273 115.931 337.273 116.134 337.07 116.538C336.059 119.573 335.047 122.406 334.845 125.238C334.845 125.845 334.642 126.452 334.642 127.261C334.642 127.868 334.642 129.285 334.642 130.903C334.642 132.724 334.642 134.545 334.035 134.95C333.428 135.354 332.821 135.759 332.214 135.759C331.405 135.759 330.798 135.354 330.191 134.95C329.584 134.545 328.977 134.343 328.775 133.533C328.573 133.331 328.573 132.926 328.573 132.319C328.573 129.689 329.382 125.036 329.989 123.215C330.394 122.203 330.596 120.382 331.203 118.966C332.012 116.133 332.619 113.908 333.428 111.278C333.631 110.266 334.642 109.255 334.642 108.85C334.845 108.445 335.249 107.636 335.249 107.434C335.249 106.422 335.249 105.41 335.856 105.006C336.463 103.792 336.463 102.578 336.666 101.364C336.666 98.7337 338.689 94.0803 339.7 91.4501C339.903 91.0454 340.307 90.4385 340.307 90.0338C341.117 88.8199 340.914 87.6059 341.319 86.1897C342.533 82.9525 343.545 79.3107 345.163 76.0735L346.175 72.4317C346.377 71.0155 348.198 66.7667 348.4 65.1481C348.805 63.1248 350.424 59.6854 351.233 57.4598C351.233 57.0552 351.233 57.0552 351.233 56.8528C351.233 56.6505 351.233 56.4482 350.828 56.4482C350.828 56.4482 350.626 56.4482 350.424 56.4482C350.019 56.6505 348.805 57.6621 348.603 58.2691C348.603 58.6737 347.996 58.6737 347.793 59.0784C346.579 60.2923 345.77 61.7086 344.758 62.9225L343.14 64.5411C341.724 66.1597 339.498 69.1945 337.88 69.5992C337.677 69.8015 337.475 69.8015 337.475 69.8015C337.273 69.8015 337.07 69.5992 336.868 69.3969C336.868 69.3969 336.868 69.1945 336.868 68.9922C336.868 68.5876 337.475 68.1829 337.677 67.7783C337.879 67.3736 338.689 66.7667 339.498 65.7551C341.117 64.1365 343.14 61.7086 344.758 59.2807C344.961 59.0784 345.77 58.8761 345.77 58.6737C346.377 58.0668 346.579 57.0552 347.186 56.2459C347.591 55.6389 347.996 55.2342 348.603 54.6273C348.805 54.2226 348.805 53.211 349.21 53.0087C349.614 52.1994 351.031 50.7831 352.042 49.5692C354.065 48.7599 354.47 48.7599 355.482 47.546Z" fill="white"/>
<path d="M421.034 35.4066C421.237 35.2043 421.034 36.4182 418.202 39.6554C417.797 40.2624 416.786 40.8694 416.381 41.4763C415.369 42.4879 414.762 43.0949 414.155 44.1065C413.751 44.5112 412.334 45.1181 411.93 45.7251C410.311 47.7483 408.693 49.5692 406.669 51.5925C406.265 51.9971 404.646 54.0204 404.444 54.2227C404.444 54.8297 404.241 55.032 404.039 55.6389C403.23 58.0668 401.814 60.2924 401.004 62.9226C400.6 64.3388 400.6 65.7551 400.195 67.1714C399.79 68.5876 398.981 70.0039 398.981 71.8248C398.981 72.0271 399.183 72.2294 399.386 72.2294C399.588 72.2294 399.79 72.2294 399.993 71.8248C401.004 71.0155 401.611 70.2062 402.421 69.1946C402.825 68.5876 403.432 67.576 404.039 67.1714C404.444 66.7667 405.253 66.3621 405.86 65.9574C405.86 65.7551 405.86 65.5528 405.86 65.3505C406.265 64.5412 407.681 63.7319 408.49 63.1249L410.514 61.1017C411.727 59.8877 412.941 59.0784 414.56 58.0668C414.762 57.8645 415.167 57.2575 415.369 57.0552C415.774 56.6506 416.381 56.8529 416.786 56.6506C417.392 56.2459 417.797 55.6389 418.606 55.032C418.606 54.8297 422.046 53.6157 422.248 53.6157C422.855 53.6157 424.676 54.0204 425.081 54.2227C426.295 55.2343 426.699 56.6506 426.699 58.4715C426.699 59.2808 426.699 60.09 426.295 60.8993C426.295 61.304 425.688 61.911 425.485 62.5179C425.283 63.5295 425.485 64.5412 425.081 65.7551C424.676 66.969 424.069 68.3853 423.867 69.5992C423.867 70.2062 423.867 70.6108 423.867 71.2178V72.8364C423.867 73.2411 423.867 74.0503 423.665 74.6573C423.462 74.6573 423.26 74.8596 423.26 75.062V75.2643C423.26 75.6689 423.462 75.8712 423.462 76.2759C423.462 77.0852 423.058 77.8945 423.058 78.5014C423.058 79.1084 423.058 79.7154 423.462 80.12C423.867 80.5247 424.271 80.9293 424.878 80.9293C425.081 80.9293 425.485 80.727 425.89 80.727L426.902 80.5247C427.711 80.12 428.52 79.5131 429.127 79.1084C429.532 78.9061 429.734 78.0968 430.139 77.6922C431.15 77.0852 432.364 76.4782 433.174 75.4666C433.781 74.455 434.388 73.6457 435.197 73.0387C436.613 72.0271 438.232 68.183 440.457 68.183L440.66 68.3853C440.66 68.5876 441.064 68.7899 441.064 69.1946C441.064 69.3969 441.064 69.3969 441.064 69.5992C440.255 71.2178 437.018 74.455 435.602 75.6689C434.792 76.4782 433.578 76.8829 432.769 77.6922C432.162 78.2991 431.757 79.3107 431.15 79.7154L428.52 81.5363C428.318 81.5363 427.711 82.1433 427.509 82.3456C427.509 82.3456 427.306 82.5479 427.104 82.5479C426.902 82.5479 426.902 82.5479 426.699 82.5479C426.092 82.9526 426.902 82.9526 425.081 84.1665C424.878 84.3688 424.069 84.1665 424.069 84.3688C423.665 84.5711 423.058 85.5828 422.855 85.5828C422.451 85.5828 421.641 85.7851 420.832 85.7851C420.023 85.7851 419.213 85.7851 418.606 85.3804C417.595 84.7735 416.786 83.9642 416.381 82.7502C415.976 81.9409 415.976 81.1317 415.976 80.12C415.976 78.9061 416.179 77.6922 416.179 76.6805C416.179 76.6805 415.976 75.6689 415.976 74.8596V74.455C416.583 72.0271 416.583 68.5876 417.595 66.1597C418.606 63.5295 419.011 63.3272 419.213 60.8993V60.2924C419.213 59.4831 418.809 59.0784 418.202 59.0784C417.999 59.0784 417.797 59.2808 417.393 59.2808C416.583 59.6854 416.381 60.09 415.572 60.697C415.167 61.1017 414.762 61.1017 414.358 61.304C414.155 61.7086 413.953 62.1133 413.346 62.3156C413.144 62.3156 412.941 62.3156 412.739 62.3156C412.334 62.5179 412.334 63.1249 411.93 63.3272C411.525 63.7319 410.918 63.9342 410.514 64.1365C410.109 64.5412 410.109 65.1481 409.907 65.3505C409.502 65.9574 408.895 66.5644 408.288 67.1714C407.681 67.9806 406.265 68.3853 405.86 69.1946C404.848 70.8132 403.837 72.2294 402.623 73.4434C402.421 73.6457 402.218 73.6457 401.814 73.848C401.409 74.455 400.802 75.4666 400.195 75.8713C400.195 75.8713 399.79 75.8712 399.588 76.2759C399.588 76.4782 399.588 76.8829 399.183 77.0852C398.576 77.8945 397.565 78.2991 397.16 79.3107C396.756 79.7154 396.958 80.3224 396.756 80.9293C396.149 82.5479 395.137 84.1665 394.125 85.5828C393.721 86.3921 393.518 86.999 392.304 87.606C391.9 88.0106 391.09 88.0106 390.484 88.0106C390.079 88.0106 389.674 88.0106 389.472 87.8083C388.46 87.4037 388.46 86.999 388.46 85.3804C388.46 84.7735 388.663 84.3688 388.865 83.5595C389.067 82.9526 389.674 82.1433 389.877 81.334L390.079 79.1084C390.484 77.8945 391.495 76.2759 391.495 75.062C391.495 74.455 391.495 73.6457 391.495 73.0387C391.697 72.0271 392.304 71.0155 392.507 70.0039C392.911 68.9923 394.935 63.9342 395.542 61.1017C395.542 60.697 395.542 60.09 395.542 60.09H395.137C394.732 60.09 394.732 60.09 394.125 60.4947C393.923 60.697 393.518 61.7086 393.114 62.1133C391.697 63.5295 391.091 64.7435 389.674 65.7551C388.663 66.5644 388.056 67.3737 387.449 68.183H387.044H386.639C386.639 68.3853 386.639 68.5876 386.639 68.9923C386.235 69.5992 385.628 70.4085 385.223 70.6108C385.021 70.8132 384.414 71.0155 384.212 71.0155C384.009 71.0155 383.807 71.0155 383.807 70.8132C383.605 70.4085 383.402 70.4085 383.402 70.2062C383.402 70.0039 383.605 69.8016 383.605 69.8016C383.605 69.8016 384.212 68.9923 384.616 68.7899L385.628 67.576C386.235 66.5644 386.842 65.9574 387.246 65.3505C388.056 64.5412 389.067 63.9342 389.674 62.9226C391.9 59.8877 393.721 57.8645 395.339 56.0436C396.351 55.032 396.756 53.6157 396.958 52.8064L397.363 51.1878C399.183 47.3437 401.409 42.6903 403.028 39.0484C404.039 36.8229 404.646 34.1927 406.062 32.1695C407.681 29.3369 410.311 24.8858 412.132 22.2556C412.334 21.851 413.144 21.244 413.751 20.8394C414.155 20.637 413.751 19.8278 414.155 19.6254C415.774 17.8045 418.809 14.7697 420.832 13.5557C421.439 13.1511 423.665 12.3418 425.081 12.3418C425.283 12.3418 425.485 12.3418 425.688 12.3418C427.306 12.7464 428.318 13.3534 429.127 14.7697C429.33 15.1743 429.532 15.7813 429.532 16.5906C429.532 17.6022 429.33 18.8161 429.33 19.8278C429.127 23.6719 427.306 25.8974 426.295 28.3253C425.89 29.7416 423.462 33.1811 422.248 34.395C422.046 34.7997 421.034 35.002 421.034 35.4066ZM407.276 48.3553C407.681 48.153 408.288 47.3437 408.49 47.1414C409.502 46.1298 409.907 46.5344 410.716 45.5228C410.918 45.1181 411.93 44.3088 412.334 43.9042C413.346 42.2856 413.953 42.2856 414.56 41.6786C415.774 39.8577 416.583 38.8461 417.999 37.2275C418.404 36.8229 419.011 35.609 419.416 35.4066C419.618 35.002 420.427 34.5973 421.237 33.5857C422.046 32.1695 424.676 29.5393 425.283 28.123C426.699 25.4928 427.711 22.6603 428.318 19.4231C428.52 19.2208 428.52 18.8161 428.52 18.4115C428.52 17.1976 428.116 15.7813 427.104 15.7813C426.092 15.7813 424.878 15.9836 424.271 16.5906C423.665 17.1976 422.653 18.0068 422.248 18.6138V18.8161C422.248 19.0185 422.248 19.2208 422.248 19.2208C421.237 20.2324 417.999 23.0649 417.19 24.4812C416.179 26.3021 416.381 26.3021 415.369 28.123C415.167 28.9323 414.762 29.5393 414.358 30.1462C413.953 31.3602 412.334 32.5741 411.93 33.788C411.12 35.8113 410.918 36.8229 409.907 38.8461C409.097 40.4647 407.883 42.4879 407.479 44.5112C407.479 44.7135 406.265 48.153 406.265 48.9623C406.265 49.1646 406.265 49.3669 406.265 49.3669C406.062 49.1646 407.074 48.3553 407.276 48.3553Z" fill="white"/>
<path d="M468.783 72.4317C468.378 72.6341 467.771 72.8364 467.771 72.8364C467.366 73.241 467.366 73.848 466.759 74.2526C466.152 74.6573 465.545 74.6573 464.938 75.2643C464.129 75.6689 462.308 78.2991 461.297 78.9061C460.69 79.3107 459.88 79.3107 459.476 79.7154C458.869 80.12 456.845 82.1432 456.036 82.1432C454.013 82.1432 451.99 84.1665 449.764 84.1665C449.562 84.1665 449.36 83.9642 448.955 83.9642C448.348 83.9642 447.336 84.5711 446.527 84.5711C446.325 84.5711 446.325 84.3688 446.122 84.3688C445.92 84.3688 443.492 84.1665 443.088 84.1665C440.457 83.3572 439.446 82.5479 438.636 80.3223C438.434 79.9177 438.029 79.3107 437.827 78.5014C437.422 77.2875 437.422 76.2759 437.422 75.2643C437.422 74.2526 437.422 73.241 437.827 72.0271C438.232 70.8132 438.029 69.8015 438.636 68.3853C439.243 66.5644 440.255 64.7435 441.267 62.9226C441.267 62.7202 442.076 62.3156 442.278 62.1133C442.683 61.304 442.683 60.8993 443.29 60.09C443.695 59.2807 444.301 58.8761 444.908 58.2691C446.325 56.6505 447.943 55.032 449.562 53.818C450.776 53.0087 454.013 51.3901 457.048 51.3901C458.666 51.3901 460.083 51.9971 460.892 53.211C461.904 54.2227 462.308 55.4366 462.308 56.6505C462.308 58.2691 461.701 59.6854 461.094 60.2924C460.892 60.697 460.487 60.697 460.285 61.1016C459.678 61.7086 459.88 62.7202 459.273 63.5295C458.869 64.1365 457.857 64.5411 457.452 65.1481C457.25 65.3504 456.846 65.9574 456.441 66.1597C455.025 67.7783 453.811 68.183 452.394 68.7899C452.394 68.7899 451.383 68.7899 450.978 68.9922C450.371 69.1946 449.764 70.0039 449.157 70.2062C447.943 71.0155 445.92 70.6108 444.908 71.4201C444.706 71.8248 444.301 73.848 444.099 74.2526C443.897 74.6573 443.897 75.0619 443.897 75.6689C443.897 76.2759 443.897 76.8829 444.099 77.4898C444.504 80.3223 446.325 81.334 448.955 81.334C449.562 81.334 450.169 81.334 450.978 81.1316C454.822 80.3223 456.036 79.3107 460.487 76.2759C462.106 75.2643 464.129 73.241 465.545 72.2294C466.355 71.6224 467.164 70.4085 467.973 70.0039C468.783 69.5992 470.199 65.9574 472.222 65.9574C472.424 65.9574 472.829 66.1597 472.829 66.362C472.829 66.5644 472.829 67.3737 472.627 67.576C472.424 68.183 471.008 68.7899 470.603 69.3969C469.997 70.4085 469.187 72.2294 468.783 72.4317ZM457.655 54.8296C457.25 54.8296 456.239 55.032 455.632 55.4366C454.822 56.0436 454.418 56.8529 453.608 57.4598C452.799 58.0668 451.99 58.4714 451.18 58.8761C450.776 59.2807 450.776 59.4831 450.776 59.8877C450.371 60.2924 449.764 60.4947 449.36 60.8993C448.348 61.7086 448.348 62.9226 447.741 64.1365C447.134 65.5528 446.122 65.7551 446.122 67.9806C446.527 68.183 447.134 68.3853 447.539 68.3853C448.955 68.3853 450.169 67.7783 451.18 67.3737C451.99 66.969 453.001 66.5644 454.013 65.7551C454.215 65.5528 454.418 64.9458 454.822 64.7435C457.452 62.3156 458.869 59.4831 458.869 56.4482C458.869 56.2459 458.666 55.4366 457.857 54.8296C458.262 54.8296 458.059 54.8296 457.655 54.8296Z" fill="white"/>
<path d="M486.587 48.5574C486.587 48.9621 486.385 49.3667 486.385 49.7714C485.98 50.9853 484.564 51.7946 484.159 53.0086C484.159 53.2109 483.957 53.6155 483.957 54.0202C483.957 54.8295 484.362 55.4364 485.373 56.0434C486.385 56.6504 490.229 57.8643 491.241 58.4713C491.847 58.8759 492.454 60.2922 492.454 61.5061C492.454 61.7084 492.454 61.9108 492.454 62.1131C492.05 64.541 490.634 67.1712 489.824 68.9921C489.015 70.6107 489.015 72.8362 488.61 74.2525C488.408 75.0618 488.408 75.6687 488.408 76.478C488.408 78.0966 488.813 79.9175 489.824 80.5245C490.229 80.9291 490.836 80.9291 491.443 80.9291C492.657 80.9291 494.073 80.1198 495.085 79.5129L496.501 78.7036C497.513 77.8943 498.322 77.4896 499.131 76.478C500.345 74.8594 502.773 72.4316 504.189 71.2176C505.201 70.4083 506.415 67.5758 508.236 67.5758C508.438 67.5758 508.64 67.5758 508.843 67.7781C508.843 67.9805 509.045 68.1828 509.045 68.3851C509.045 68.3851 509.045 68.5874 508.843 68.7898C508.033 69.8014 506.617 71.42 506.01 72.4316C505.605 72.8362 505.403 72.8362 504.998 73.0385C504.594 73.2409 504.391 73.8478 504.189 74.0502C503.582 74.8594 502.571 75.4664 501.761 76.0734C500.952 76.478 500.547 77.692 499.94 78.2989C497.715 79.9175 495.489 81.5361 492.859 82.9524C491.443 83.5593 490.027 83.964 488.61 83.964C486.182 83.964 483.552 82.75 482.541 80.5245C482.338 80.1198 482.338 79.3106 482.338 78.7036C482.338 77.8943 482.338 77.085 482.338 76.0734C482.338 75.4664 482.338 74.8594 482.136 74.2525C482.136 73.4432 482.541 71.6223 482.541 71.0153C482.945 68.9921 483.35 67.5758 483.957 65.7549C484.362 64.7433 485.373 63.327 485.373 62.1131C485.373 61.9108 485.373 61.7084 485.373 61.3038C484.968 60.2922 484.159 59.0782 482.541 58.8759C482.541 58.6736 482.338 58.6736 482.136 58.6736C482.136 58.6736 481.934 58.6736 481.934 58.8759C480.72 59.8875 479.506 60.8992 478.494 62.1131C477.483 63.5294 476.471 64.9456 475.055 66.1595C474.448 66.5642 473.031 67.5758 472.627 68.1828C472.02 69.1944 472.02 69.599 471.008 69.8014C470.401 69.8014 469.997 69.599 469.997 69.1944C469.997 68.9921 469.997 68.7898 470.401 68.5874C471.008 67.9805 471.413 67.5758 472.02 66.7665C472.222 66.3619 472.627 66.1596 473.031 65.7549C474.043 64.7433 475.055 63.7317 476.066 62.3154C476.673 61.7084 477.28 61.3038 477.887 60.4945C478.089 60.0899 478.696 58.8759 478.899 58.8759C479.101 58.4713 479.506 58.4713 480.113 57.8643C480.113 57.8643 480.517 56.6504 480.517 56.0434C480.517 55.6388 480.517 55.2341 480.517 54.6271V53.2109C480.517 50.5807 481.124 48.1528 482.743 46.9389C483.148 46.5342 483.755 46.3319 484.159 46.1296C484.362 46.1296 484.564 45.9272 484.564 45.9272C484.968 45.9272 485.575 46.3319 485.98 46.7365C486.385 47.1412 486.587 47.7482 486.587 48.5574Z" fill="white"/>
</svg>
